# xmcd
#
# Track frame offsets:
#	150
#	15537
#	36280
#	56422
#	72900
#	102302
#	121515
#	144797
#	164977
#	183707
#
# Disc length: 2732 seconds
# Revision: 3
# Processed by: cddbd v1.5.2PL0 Copyright (c) Steve Scherf et al.
# Submitted via: dBpowerAMP V12.0
#
DISCID=860aaa0a
DTITLE=Memphis Slim - All Kinds of Blues
DYEAR=1963
DGENRE=Blues
TTITLE0=Blues is Troubles
TTITLE1=Grinder Man Blues
TTITLE2=3-in-1 Boogie
TTITLE3=Letter Home
TTITLE4=Churnin' Man Blues
TTITLE5=Two of a Kind
TTITLE6=The Blacks
TTITLE7=If You See Kay
TTITLE8=Frankie and Johnny Boogie
TTITLE9=Mother Earth
EXTD=
EXTT0=
EXTT1=
EXTT2=
EXTT3=
EXTT4=
EXTT5=
EXTT6=
EXTT7=
EXTT8=
EXTT9=
PLAYORDER=
